<svg width="589" height="497" viewBox="0 0 589 497" fill="none" xmlns="http://www.w3.org/2000/svg">
<path d="M501.356 447.688L500.407 443.985L511.159 441.229L512.108 444.932L501.356 447.688Z" fill="#5F92D3"/>
<path d="M495.869 453.039L494.921 449.337L505.674 446.581L506.625 450.284L495.869 453.039Z" fill="#5F92D3"/>
<path d="M490.383 458.391L489.434 454.687L500.19 451.932L501.137 455.635L490.383 458.391Z" fill="#5F92D3"/>
<path d="M484.9 463.738L483.949 460.038L494.703 457.282L495.652 460.983L484.9 463.738Z" fill="#5F92D3"/>
<path d="M132.142 224.367C125.327 228.364 114.234 228.442 107.365 224.541C100.496 220.638 100.45 214.236 107.265 210.234C114.078 206.237 125.173 206.159 132.042 210.064C138.911 213.965 138.957 220.37 132.142 224.367ZM274.163 111.068L173.24 170.282C147.652 162.429 115.052 164.857 93.5372 177.479C67.3648 192.835 67.5371 217.438 93.9238 232.426C99.8476 235.79 106.59 238.385 113.778 240.212C118.859 241.503 124.16 242.411 129.555 242.935C150.546 244.978 172.948 241.235 189.097 231.759C208.655 220.284 213.495 203.646 203.684 189.713L217.61 181.543L217.216 172.703L231.871 172.601L231.503 164.322L246.158 164.22L245.788 155.939L260.445 155.837L260.074 147.558L274.732 147.456L274.361 139.175L290.008 139.065L294.782 136.265L300.051 114.526L274.163 111.068Z" fill="#C8DDEB"/>
<path d="M329.376 485.633L193.262 407.375C184.098 402.084 185.248 392.842 195.83 386.732L327.934 310.461C338.516 304.353 354.523 303.688 363.687 308.979L499.798 387.238C508.962 392.531 507.812 401.772 497.23 407.882L365.127 484.152C354.545 490.262 338.538 490.927 329.376 485.633Z" fill="#C8DDEB"/>
<path d="M488.945 308.199L465.414 294.613L552.177 244.523C556.274 242.156 556.274 238.307 552.177 235.94L463.542 184.769C459.445 182.402 452.778 182.402 448.678 184.769L361.918 234.859L338.385 221.275L425.147 171.181C442.218 161.326 469.998 161.326 487.073 171.183L575.707 222.356C592.78 232.213 592.78 248.252 575.71 258.109L488.945 308.199Z" fill="#5F92D3"/>
<path d="M526.918 314.184C526.918 301.602 519.27 286.99 509.833 281.541L352.638 190.786C348.413 188.347 344.554 188.172 341.572 189.839L341.562 189.833L153.871 298.9L335.376 435.668L520.285 328.345C520.856 328.084 521.409 327.784 521.917 327.396H521.921H521.919C525.007 325.056 526.918 320.468 526.918 314.184Z" fill="#D9EFFB"/>
<path d="M335.375 435.668L520.285 328.345C520.855 328.084 521.408 327.784 521.917 327.396H521.921L521.919 327.394C525.007 325.056 526.917 320.468 526.917 314.184C526.917 308.178 525.161 301.718 522.311 296.006L311.53 417.7L335.375 435.668Z" fill="#263C7A"/>
<path d="M323.552 435.184L166.357 344.427C156.921 338.98 149.275 324.367 149.275 311.784C149.275 299.206 156.921 293.424 166.357 298.869L323.552 389.628C332.988 395.074 340.638 409.689 340.638 422.267C340.638 434.85 332.988 440.631 323.552 435.184Z" fill="#5F92D3"/>
<path d="M300.009 404.576L281.11 393.674C279.23 392.588 277.704 389.674 277.704 387.167C277.704 384.66 279.23 383.508 281.11 384.594L300.009 395.494C301.889 396.582 303.413 399.493 303.413 402.001C303.413 404.508 301.889 405.662 300.009 404.576Z" fill="white"/>
<path d="M158.096 84.98L190.395 103.328L223.35 83.9907L223.262 75.5797L222.982 75.7438L222.955 75.1511L237.611 75.0489L237.523 66.7681L251.896 66.6679L251.809 58.385L266.182 58.2849L266.096 50.004L280.469 49.9038L280.383 41.621L295.747 41.5128L300.52 38.7131L305.79 16.9725L305.702 8.56145L303.161 16.6221L279.902 13.516L158.096 84.98Z" fill="#4067B1"/>
<path d="M190.307 94.918L223.262 75.5826L222.868 66.7429L237.523 66.6408L237.154 58.3619L251.81 58.2598L251.441 49.9789L266.096 49.8767L265.724 41.5958L280.381 41.4957L280.011 33.2148L295.661 33.1046L300.436 30.305L305.703 8.56435L279.815 5.1078L158.01 76.5719L190.307 94.918Z" fill="#D9EFFB"/>
<path d="M212.252 82.0431C208.935 77.3309 203.953 72.927 197.284 69.1381C192.586 66.4685 187.357 64.3077 181.814 62.6075L158.01 76.5719L190.307 94.918L212.252 82.0431Z" fill="#4067B1"/>
<path d="M304.819 12.2134L305.702 8.56257L301.359 7.98383L198.445 68.3673L203.864 71.4453L304.819 12.2134Z" fill="#5F92D3"/>
<path d="M80.0374 111.516L79.6809 99.5579L83.508 107.632L80.0374 111.516Z" fill="#D4D0CE"/>
<path d="M138.05 116.05C144.919 119.952 144.965 126.358 138.15 130.355C131.337 134.355 120.242 134.431 113.373 130.53C106.504 126.624 106.458 120.222 113.273 116.223C120.088 112.225 131.181 112.149 138.05 116.05ZM99.9316 138.414C126.32 153.406 168.93 153.105 195.105 137.749C208.228 130.049 214.725 120.028 214.618 110.057L214.62 110.063L214.254 97.3959L212.103 99.7911C209.065 93.5469 203.282 87.6651 194.716 82.8027C168.332 67.813 125.719 68.1114 99.547 83.4676C73.3726 98.8258 73.5449 123.426 99.9316 138.414Z" fill="#4067B1"/>
<path d="M137.693 104.1C144.564 108.005 144.608 114.408 137.793 118.407C130.978 122.404 119.886 122.482 113.017 118.579C106.148 114.678 106.102 108.272 112.917 104.275C119.73 100.277 130.822 100.199 137.693 104.1ZM99.5771 126.466C125.962 141.455 168.574 141.157 194.746 125.799C220.921 110.443 220.749 85.8423 194.362 70.8525C167.975 55.8628 125.365 56.1612 99.1886 71.5194C73.0162 86.8756 73.1884 111.476 99.5771 126.466Z" fill="#F5F6F5"/>
<path d="M130.169 133.012C124.366 133.919 117.943 133.126 113.373 130.53C108.447 127.731 107.051 123.649 109.156 120.087L97.202 110.608C97.202 110.608 90.9538 103.559 84.7676 96.5696C75.143 110.638 80.2096 127.21 99.9316 138.415C108.633 143.359 118.384 146.165 129.442 147.793L130.169 133.012Z" fill="#5F92D3"/>
<path d="M137.693 104.1C144.564 108.005 144.608 114.408 137.793 118.407C130.978 122.404 119.886 122.483 113.017 118.579C106.148 114.678 106.102 108.272 112.917 104.275C119.73 100.277 130.822 100.199 137.693 104.1ZM99.5771 126.466C105.501 129.83 112.242 132.426 119.431 134.252C124.51 135.544 129.811 136.451 135.208 136.974C156.198 139.018 178.601 135.275 194.746 125.799C220.921 110.443 220.749 85.8423 194.362 70.8526C167.975 55.8628 125.365 56.1613 99.1886 71.5195C73.0162 86.8757 73.1884 111.476 99.5771 126.466Z" fill="#D9EFFB"/>
<path d="M87.1087 99.2391C88.3944 91.579 94.0719 84.0992 104.179 78.1674C127.466 64.5034 165.378 64.2391 188.855 77.5746C200.522 84.2033 206.416 92.9428 206.55 101.734C208.224 91.7492 202.42 81.4677 189.133 73.9198C165.658 60.5822 127.746 60.8486 104.46 74.5106C92.7461 81.3856 86.9746 90.3374 87.1087 99.2391Z" fill="#4067B1"/>
<path d="M103.887 106.697C99.1366 106.697 93.8136 108.347 88.2603 111.603C68.5063 123.194 52.5653 151.255 52.7295 174.16C52.8016 184.832 56.3523 192.7 62.7267 196.317C69.0991 199.933 77.6743 198.96 86.8785 193.561C106.634 181.972 122.573 153.909 122.413 131.007C122.369 124.723 121.085 119.249 118.696 115.18C117.084 112.43 114.967 110.3 112.412 108.846C109.885 107.41 107.011 106.697 103.887 106.697ZM71.2339 207.996C66.4937 207.996 62.0378 206.867 58.0305 204.59C48.5741 199.223 43.3111 188.44 43.217 174.224C43.0308 148.296 61.0785 116.524 83.446 103.398C95.7001 96.207 107.656 95.2017 117.112 100.575C121.14 102.864 124.434 106.158 126.901 110.364C130.181 115.953 131.872 122.876 131.926 130.943C132.11 156.871 114.06 188.645 91.6928 201.768C84.6335 205.907 77.6724 207.996 71.2339 207.996Z" fill="#4067B1"/>
<path d="M116.309 127.74L135.096 132.344L137.793 118.403C130.978 122.401 119.886 122.479 113.017 118.576L116.309 127.74Z" fill="#D9EFFB"/>
<path d="M99.5771 126.466C105.501 129.83 112.242 132.426 119.431 134.252C124.51 135.544 129.811 136.451 135.208 136.974C156.198 139.018 178.601 135.275 194.746 125.799L118.242 124.083L99.5771 126.466Z" fill="#D9EFFB"/>
<path d="M127.844 136.125C127.844 136.125 119.712 134.801 111.229 131.842V143.579C115.272 144.991 121.935 147.033 127.64 147.788C145.157 150.102 127.844 136.125 127.844 136.125Z" fill="#4067B1"/>
<path d="M115.644 133.256C112.148 132.225 108.339 130.909 104.822 129.263C94.5887 124.47 107.534 142.222 107.534 142.222C107.534 142.222 111.02 143.609 115.644 145.027V133.256Z" fill="#5F92D3"/>
<path d="M307.577 339.49L274.103 361.078L257.807 358.433L297.61 339.191L307.577 339.49Z" fill="#5F92D3"/>
<path d="M267.106 448.488C267.106 448.488 257.463 443.623 251.541 450.867C245.621 458.106 237.156 475.197 236.894 486.748C236.631 498.295 246.034 497.518 251.621 494.783C257.213 492.049 273.538 468.368 274.527 463.728C275.515 459.086 273.362 452.811 271.79 451.584C270.22 450.356 267.106 448.488 267.106 448.488Z" fill="#263C7A"/>
<path d="M269.21 446.162L269.655 456.152C269.751 458.277 268.684 460.299 266.833 461.349C265.149 462.304 262.704 463.037 259.395 462.504C252.132 461.337 251.483 459.262 250.964 449.275C250.448 439.288 269.21 446.162 269.21 446.162Z" fill="#5F92D3"/>
<path d="M231.811 429.279C231.811 429.279 222.168 424.419 216.247 431.658C210.327 438.898 201.862 455.991 201.599 467.542C201.337 479.089 210.739 478.31 216.327 475.578C221.916 472.842 238.244 449.161 239.231 444.522C240.22 439.879 238.067 433.607 236.495 432.377C234.925 431.15 231.811 429.279 231.811 429.279Z" fill="#263C7A"/>
<path d="M233.916 426.954L234.361 436.943C234.457 439.067 233.389 441.093 231.539 442.142C229.855 443.097 227.409 443.83 224.101 443.297C216.837 442.13 216.189 440.054 215.67 430.068C215.153 420.081 233.916 426.954 233.916 426.954Z" fill="#5F92D3"/>
<path d="M319.951 243.557C317.098 197.123 269.665 250.388 269.665 250.388L237.2 282.207L207.968 314.322C202.258 320.592 199.603 329.061 200.708 337.47L212.532 427.515C213.117 431.962 216.922 435.243 221.408 435.207C222.673 435.197 224.125 435.083 225.787 434.824C236.337 433.182 235.558 423.151 235.558 423.151L233.397 338.93L294.788 301.923C294.788 301.923 322.803 289.99 319.951 243.557Z" fill="#D9EFFB"/>
<path d="M256.856 323.015L248.119 319.807C247.916 319.807 233.269 333.976 233.397 338.932L239.968 341.043L256.472 325.024L256.856 323.015Z" fill="#5F92D3"/>
<path d="M307.577 339.486C307.577 339.486 344.061 318.655 348.427 309.921C350.139 306.501 352.796 302.928 342.15 297.757L293.494 332.441L295.603 344.383L307.577 339.486Z" fill="#5F92D3"/>
<path d="M355.248 261.475C352.204 215.056 304.959 268.306 304.959 268.306L272.495 300.128L243.262 332.24C237.553 338.512 234.897 346.981 236.003 355.39L247.828 445.437C248.411 449.882 252.216 453.163 256.702 453.129C257.967 453.117 259.419 453.003 261.082 452.742C271.631 451.1 270.852 441.069 270.852 441.069L268.692 356.85L330.082 319.841C330.082 319.841 358.027 303.917 355.248 261.475Z" fill="#D9EFFB"/>
<path d="M327.185 112.194C363.146 127.105 362.425 148.361 362.425 148.361C362.425 148.361 355.38 226.292 357.785 278.336C358.79 300.095 242.189 301.755 259.578 243.709C280.079 175.269 272.397 119.862 281.993 111.507C291.592 103.15 317.882 108.339 327.185 112.194Z" fill="#5F92D3"/>
<path d="M338.754 131.045C336.873 138.347 327.307 142.196 317.388 139.639C307.467 137.085 300.95 129.095 302.833 121.793C304.713 114.492 314.28 110.645 324.199 113.198C334.118 115.755 340.636 123.746 338.754 131.045Z" fill="#FAB6A9"/>
<path d="M318.045 114.122C311.368 114.122 305.782 117.23 304.497 122.22C303.728 125.208 304.621 128.473 307.018 131.409C309.535 134.497 313.37 136.828 317.816 137.973C326.802 140.28 335.447 136.988 337.09 130.617C337.859 127.628 336.965 124.365 334.568 121.429C332.051 118.339 328.216 116.008 323.77 114.861C321.822 114.36 319.891 114.122 318.045 114.122ZM323.46 142.141C321.351 142.141 319.162 141.87 316.959 141.304C311.808 139.976 307.333 137.234 304.353 133.581C301.249 129.778 300.117 125.439 301.168 121.363C303.279 113.154 313.807 108.741 324.627 111.532C329.778 112.858 334.254 115.604 337.234 119.257C340.338 123.062 341.469 127.399 340.418 131.473C338.736 138.011 331.715 142.141 323.46 142.141Z" fill="white"/>
<path d="M312.768 110.577C312.768 110.577 313.076 112.018 312.453 123.413C312.259 126.996 324.801 130.343 328.046 127.1C331.288 123.858 329.99 120.486 330.769 108.294C331.548 96.1016 312.768 110.577 312.768 110.577Z" fill="#FAB6A9"/>
<path d="M330.769 108.293C330.769 108.293 327.679 119.598 312.451 123.934L312.684 113.66L330.769 108.293Z" fill="#EB8B8A"/>
<path d="M340.414 79.5718C344.243 94.3733 335.345 109.473 320.546 113.3C305.744 117.125 290.645 108.23 286.818 93.4281C282.991 78.6286 291.886 63.5287 306.688 59.6997C321.487 55.8747 336.589 64.7724 340.414 79.5718Z" fill="#FAB6A9"/>
<path d="M319.973 87.514C319.973 87.514 304.733 94.0426 294.179 94.1167C283.627 94.1928 285.954 85.3552 285.954 85.3552L317.28 80.8272L319.973 87.514Z" fill="#EB8B8A"/>
<path d="M291.035 89.2365C291.035 89.2365 304.311 83.6011 315.956 85.9502C318.696 86.5029 321.233 87.9688 322.995 90.1337C323.572 90.8406 324.301 91.4874 325.126 91.6737C327.191 92.1423 330.571 83.573 334.586 83.3788C338.6 83.1825 341.279 86.0243 337.987 91.2952C334.697 96.5641 335.81 102.462 337.322 103.307C338.838 104.152 354.901 91.8499 340.732 63.781C326.562 35.712 290.571 50.8299 284.971 56.5194C284.971 56.5194 279.075 61.6562 274.279 57.0842C274.279 57.0842 268.902 97.3532 291.035 89.2365Z" fill="#092E69"/>
<path d="M342.251 205.301V226.356C342.251 228.769 341.237 231.07 339.453 232.697L296.194 272.136L301.109 279.652L358.238 238.22C360.903 236.285 362.621 233.311 362.966 230.035L366.829 193.311L342.251 205.301Z" fill="#FAB6A9"/>
<path d="M359.379 137.832C359.379 137.832 372.504 157.57 377.393 209.521C377.393 209.521 354.975 216.77 342.251 212.653C329.53 208.539 359.379 137.832 359.379 137.832Z" fill="#5F92D3"/>
<path d="M339.855 162.786C339.855 162.786 334.719 190.284 334.426 203.207C334.346 206.758 336.515 209.964 339.855 211.172V162.786Z" fill="#4067B1"/>
<path d="M328.633 299.517L319.07 298.256L257.353 262.623C255.374 261.479 251.918 261.623 249.633 262.943L205.899 288.182L200.12 287.417V293.175H200.126C200.086 293.932 200.518 294.663 201.451 295.202L271.397 335.583C273.376 336.728 276.831 336.582 279.116 335.264L326.744 307.776C328.03 307.033 328.669 306.078 328.633 305.181V299.517Z" fill="#263C7A"/>
<path d="M282.258 276.998L277.874 274.467H229.666L205.899 288.179L200.12 287.414V293.172H200.126C200.086 293.929 200.518 294.66 201.451 295.198L271.397 335.579C272.443 336.184 273.901 336.425 275.381 336.326L282.258 276.998Z" fill="#4067B1"/>
<path d="M202.685 287.753L200.12 287.415V293.173H200.126C200.086 293.93 200.518 294.661 201.451 295.199L202.685 295.91V287.753Z" fill="#5F92D3"/>
<path d="M272.1 335.91C273.977 336.621 276.656 336.466 278.659 335.501V325.712H272.1V335.91Z" fill="#2E4B8D"/>
<path d="M271.397 329.83L201.451 289.449C199.473 288.307 199.721 286.31 202.006 284.993L249.633 257.503C251.918 256.185 255.374 256.041 257.353 257.184L327.299 297.565C329.277 298.707 329.029 300.703 326.744 302.021L279.115 329.511C276.83 330.829 273.376 330.973 271.397 329.83Z" fill="white"/>
<path d="M270.214 323.712L212.055 290.132C210.409 289.183 210.615 287.522 212.516 286.425L238.037 272.074C239.938 270.977 242.812 270.858 244.456 271.81L302.614 305.386C304.261 306.337 304.054 307.995 302.154 309.093L276.632 323.446C274.734 324.541 271.858 324.659 270.214 323.712Z" fill="#D9EFFB"/>
<path d="M252.338 256.178L251.615 261.005C250.997 265.118 251.105 269.306 251.93 273.381L252.791 277.632C253.277 280.032 255.174 281.892 257.581 282.329C259.464 282.671 261.238 281.351 261.452 279.451L262.606 269.135C262.606 269.135 265.245 272.592 266.521 272.592C267.795 272.592 265.093 262.26 262.213 256.413C259.329 250.565 252.338 256.178 252.338 256.178Z" fill="#FAB6A9"/>
<path d="M276.047 179.473L268.544 194.326C266.767 197.839 265.724 201.676 265.471 205.603L262.213 256.41L252.338 256.176L247.856 199.119C247.718 197.356 247.802 195.584 248.113 193.844L253.229 164.91L276.047 179.473Z" fill="#FAB6A9"/>
<path d="M269.028 333.711L263.163 326.053L201.487 290.344C199.511 289.2 197.911 286.134 197.913 283.495L197.969 233.002L194.42 228.372L197.753 226.442L197.757 226.446C198.393 226.035 199.243 226.047 200.176 226.586L270.07 267.055C272.048 268.199 273.648 271.265 273.646 273.902L273.586 328.895C273.584 330.381 273.076 331.41 272.279 331.826L269.028 333.711Z" fill="#263C7A"/>
<path d="M226.376 304.758L221.996 302.218L197.943 260.442L197.969 233.003L194.42 228.373L197.753 226.443L197.757 226.447C198.393 226.036 199.243 226.048 200.176 226.587L270.07 267.056C271.115 267.659 272.052 268.805 272.705 270.136L226.376 304.758Z" fill="#4067B1"/>
<path d="M195.994 230.426L194.42 228.373L197.753 226.443L197.757 226.447C198.393 226.036 199.243 226.048 200.176 226.587L201.405 227.3L195.994 230.426Z" fill="#5F92D3"/>
<path d="M270.706 267.501C272.258 268.771 273.462 271.172 273.626 273.389L266.795 277.332L263.523 271.647L270.706 267.501Z" fill="#2E4B8D"/>
<path d="M266.741 268.981L196.847 228.512C194.869 227.368 193.264 228.58 193.26 231.217L193.202 286.208C193.198 288.845 194.796 291.913 196.775 293.059L266.671 333.526C268.648 334.669 270.254 333.46 270.258 330.82L270.316 275.83C270.318 273.193 268.72 270.127 266.741 268.981Z" fill="#5F92D3"/>
<path d="M301.108 279.651L299.989 281.972C298.699 284.643 296.673 286.89 294.147 288.446L287.204 292.726C285.045 294.057 282.31 294.168 280.117 292.89L279.88 292.748C277.673 291.364 277.475 288.196 279.29 286.329L286.545 278.871C286.545 278.871 282.47 281.994 281.328 280.738C280.491 279.815 285.279 275.317 288.956 275.169C292.635 275.022 296.194 272.135 296.194 272.135L301.108 279.651Z" fill="#FAB6A9"/>
<path d="M282.712 111.398C282.712 111.398 256.117 140.338 245.387 166.887C245.387 166.887 254.481 183.272 276.744 189.703C299.008 196.131 282.712 111.398 282.712 111.398Z" fill="#5F92D3"/>
<path d="M271.736 187.984L276.047 146.342L265.89 185.359C267.701 186.3 269.659 187.179 271.736 187.984Z" fill="#4067B1"/>
<path d="M302.632 105.56L295.487 103.596C295.487 103.596 298.9 108.965 303.88 110.332C308.863 111.7 309.636 107.485 309.636 107.485L302.632 105.56Z" fill="white"/>
<path d="M166.988 5.91698C158.356 5.91698 151.337 12.9362 151.337 21.5656C151.337 30.197 158.356 37.2162 166.988 37.2162C175.617 37.2162 182.636 30.197 182.636 21.5656C182.636 12.9362 175.617 5.91698 166.988 5.91698ZM166.988 41.5859C155.949 41.5859 146.969 32.6041 146.969 21.5656C146.969 10.5291 155.949 1.54722 166.988 1.54722C178.024 1.54722 187.006 10.5291 187.006 21.5656C187.006 32.6041 178.024 41.5859 166.988 41.5859Z" fill="#D9EFFB"/>
<path d="M571.692 161.818C566.273 161.818 561.863 166.226 561.863 171.645C561.863 177.062 566.273 181.47 571.692 181.47C577.109 181.47 581.517 177.062 581.517 171.645C581.517 166.226 577.109 161.818 571.692 161.818ZM571.692 185.84C563.866 185.84 557.496 179.471 557.496 171.645C557.496 163.819 563.866 157.448 571.692 157.448C579.519 157.448 585.887 163.819 585.887 171.645C585.887 179.471 579.519 185.84 571.692 185.84Z" fill="#5F92D3"/>
<path d="M102.461 424.692L108.241 436.449L119.998 430.672L114.219 418.914L102.461 424.692ZM106.25 442.297L96.6135 422.701L116.209 413.066L125.846 432.662L106.25 442.297Z" fill="#5F92D3"/>
<path d="M386.887 120.944L392.667 132.703L404.424 126.923L398.647 115.164L386.887 120.944ZM390.676 138.551L381.042 118.951L400.637 109.316L410.272 128.914L390.676 138.551Z" fill="#5F92D3"/>
<path d="M84.3632 331.801L75.3534 336.23L70.9255 327.219L79.9334 322.791L84.3632 331.801Z" fill="#5F92D3"/>
<path d="M433.028 32.2108L379.48 1.29613C378.42 0.685333 377.461 0.661331 376.71 1.07388L376.714 1.03979L371.521 4.03979C371.521 4.03979 373.82 4.87688 375.172 5.37553V44.3688C375.172 47.541 377.1 51.2279 379.48 52.6017L430.661 82.1505V86.7266L435.908 83.7046L435.88 83.6946C436.767 83.1519 437.336 81.9683 437.336 80.26V40.4436C437.336 37.2695 435.407 33.5846 433.028 32.2108Z" fill="#0A68FF"/>
<path d="M427.737 86.5688L374.191 55.6522C371.809 54.2784 369.881 50.5935 369.881 47.4213V7.60493C369.881 4.43276 371.809 2.97284 374.191 4.34665L427.737 35.2634C430.116 36.6372 432.045 40.322 432.045 43.4962V83.3126C432.045 86.4847 430.116 87.9427 427.737 86.5688Z" fill="#5F92D3"/>
<path d="M392.198 41.927C392.198 44.232 390.58 45.1672 388.584 44.0137C386.589 42.8622 384.971 40.0605 384.971 37.7555C384.971 35.4524 386.589 34.5192 388.584 35.6707C390.58 36.8243 392.198 39.6239 392.198 41.927Z" fill="white"/>
<path d="M403.143 48.2501C403.143 50.5531 401.525 51.4864 399.53 50.3349C397.535 49.1833 395.915 46.3797 395.915 44.0766C395.915 41.7716 397.535 40.8403 399.53 41.9918C401.525 43.1434 403.143 45.943 403.143 48.2501Z" fill="white"/>
<path d="M414.087 54.5704C414.087 56.8734 412.471 57.8067 410.474 56.6552C408.48 55.5037 406.862 52.702 406.862 50.3969C406.862 48.0939 408.48 47.1606 410.474 48.3122C412.471 49.4637 414.087 52.2674 414.087 54.5704Z" fill="white"/>
<path d="M62.8606 370.965L10.3295 340.637C9.29014 340.036 8.34894 340.012 7.61398 340.417L7.61794 340.385L2.52124 343.327C2.52124 343.327 4.77824 344.152 6.10198 344.636V382.891C6.10198 386.005 7.99444 389.621 10.3295 390.967L60.5396 419.957V424.445L65.6884 421.481L65.6603 421.471C66.5295 420.941 67.0882 419.775 67.0882 418.101V379.04C67.0882 375.929 65.1957 372.313 62.8606 370.965Z" fill="#0A68FF"/>
<path d="M57.672 424.289L5.14091 393.961C2.80584 392.613 0.91333 388.996 0.91333 385.884V346.825C0.91333 343.713 2.80584 342.281 5.14091 343.629L57.672 373.956C60.0071 375.304 61.8996 378.921 61.8996 382.035V421.094C61.8996 424.207 60.0071 425.638 57.672 424.289Z" fill="#5F92D3"/>
<path d="M22.8061 380.502C22.8061 382.761 21.22 383.678 19.2615 382.546C17.3049 381.417 15.7168 378.669 15.7168 376.408C15.7168 374.147 17.3049 373.232 19.2615 374.364C21.22 375.491 22.8061 378.241 22.8061 380.502Z" fill="white"/>
<path d="M33.5444 386.699C33.5444 388.96 31.9583 389.877 29.9997 388.746C28.0412 387.616 26.4551 384.867 26.4551 382.608C26.4551 380.347 28.0412 379.43 29.9997 380.559C31.9583 381.69 33.5444 384.44 33.5444 386.699Z" fill="white"/>
<path d="M44.2804 392.898C44.2804 395.159 42.6943 396.076 40.7378 394.946C38.7792 393.815 37.1931 391.065 37.1931 388.806C37.1931 386.547 38.7792 385.628 40.7378 386.759C42.6943 387.889 44.2804 390.639 44.2804 392.898Z" fill="white"/>
</svg>
