<svg width="212" height="47" viewBox="0 0 212 47" fill="none" xmlns="http://www.w3.org/2000/svg">
<path d="M0 15.1418C0 14.8957 0.116453 14.6641 0.314001 14.5173L10.6289 6.85482C11.2762 6.37395 12.1951 6.83599 12.1951 7.64238V37.747C12.1951 41.1146 9.46511 43.8445 6.09753 43.8445C2.72996 43.8445 0 41.1146 0 37.747V15.1418Z" fill="#0A68FF"/>
<path d="M33.1008 8.74208C33.1008 7.45707 34.5473 6.70394 35.6 7.44085L44.7374 13.837C45.0874 14.082 45.2959 14.4824 45.2959 14.9096V37.747C45.2959 41.1146 42.5659 43.8445 39.1984 43.8445C35.8308 43.8445 33.1008 41.1146 33.1008 37.747V8.74208Z" fill="#0A68FF"/>
<path d="M16.5505 19.5792C16.5505 18.7415 17.2296 18.0625 18.0672 18.0625H27.2289C28.0666 18.0625 28.7456 18.7415 28.7456 19.5792V37.7488C28.7456 41.1164 26.0156 43.8463 22.6481 43.8463C19.2805 43.8463 16.5505 41.1164 16.5505 37.7488V19.5792Z" fill="#0A68FF"/>
<circle cx="22.6481" cy="8.61706" r="6.09753" fill="#0A68FF"/>
<path d="M59.1116 37V10.1092H64.2592L75.707 29.0864H72.9795L84.2353 10.1092H89.3445L89.4213 37H83.5822L83.5438 19.06H84.6194L75.6302 34.1573H72.8259L63.6446 19.06H64.9507V37H59.1116ZM105.213 37.3073C103.011 37.3073 101.051 36.8463 99.3355 35.9244C97.6452 35.0024 96.3007 33.7475 95.3019 32.1597C94.3287 30.5462 93.8421 28.7151 93.8421 26.6663C93.8421 24.5918 94.3287 22.7607 95.3019 21.1728C96.3007 19.5594 97.6452 18.3045 99.3355 17.4081C101.051 16.4862 103.011 16.0252 105.213 16.0252C107.39 16.0252 109.336 16.4862 111.052 17.4081C112.768 18.3045 114.113 19.5466 115.086 21.1344C116.059 22.7223 116.546 24.5662 116.546 26.6663C116.546 28.7151 116.059 30.5462 115.086 32.1597C114.113 33.7475 112.768 35.0024 111.052 35.9244C109.336 36.8463 107.39 37.3073 105.213 37.3073ZM105.213 32.3901C106.212 32.3901 107.108 32.1597 107.902 31.6987C108.696 31.2377 109.324 30.5846 109.785 29.7395C110.246 28.8687 110.476 27.8443 110.476 26.6663C110.476 25.4626 110.246 24.4382 109.785 23.593C109.324 22.7479 108.696 22.0948 107.902 21.6338C107.108 21.1728 106.212 20.9424 105.213 20.9424C104.214 20.9424 103.318 21.1728 102.524 21.6338C101.73 22.0948 101.09 22.7479 100.603 23.593C100.142 24.4382 99.9118 25.4626 99.9118 26.6663C99.9118 27.8443 100.142 28.8687 100.603 29.7395C101.09 30.5846 101.73 31.2377 102.524 31.6987C103.318 32.1597 104.214 32.3901 105.213 32.3901ZM120.974 37V10.1092H126.122L141.987 29.4706H139.49V10.1092H145.637V37H140.527L124.623 17.6386H127.12V37H120.974ZM164.138 16.0252C165.777 16.0252 167.237 16.3581 168.517 17.024C169.824 17.6642 170.848 18.663 171.591 20.0204C172.333 21.3521 172.705 23.068 172.705 25.168V37H166.712V26.09C166.712 24.4254 166.341 23.1961 165.598 22.4021C164.881 21.6082 163.856 21.2113 162.525 21.2113C161.577 21.2113 160.719 21.4161 159.951 21.8259C159.208 22.2101 158.619 22.8119 158.184 23.6314C157.774 24.451 157.569 25.501 157.569 26.7815V37H151.576V16.3325H157.3V22.0564L156.225 20.3277C156.967 18.9448 158.03 17.8819 159.413 17.1392C160.796 16.3965 162.371 16.0252 164.138 16.0252ZM178.56 37V10.1092H184.783V37H178.56ZM196.735 37V15.18H188.13V10.1092H211.563V15.18H202.958V37H196.735Z" fill="#092E69"/>
</svg>
