<svg width="60" height="60" viewBox="0 0 60 60" fill="none" xmlns="http://www.w3.org/2000/svg">
<path d="M8.99994 12.0742C8.99994 11.8483 9.10684 11.6357 9.28819 11.501L18.7571 4.46692C19.3513 4.02549 20.1948 4.44964 20.1948 5.18989V32.8254C20.1948 35.9168 17.6887 38.4228 14.5974 38.4228C11.506 38.4228 8.99994 35.9168 8.99994 32.8254V12.0742Z" fill="#0A68FF"/>
<path d="M39.386 6.19938C39.386 5.01977 40.7138 4.32842 41.6802 5.00488L50.0682 10.8765C50.3895 11.1014 50.5808 11.4689 50.5808 11.8611V32.8254C50.5808 35.9168 48.0748 38.4228 44.9834 38.4228C41.892 38.4228 39.386 35.9168 39.386 32.8254V6.19938Z" fill="#0A68FF"/>
<path d="M24.1931 16.1458C24.1931 15.3769 24.8164 14.7535 25.5854 14.7535H33.9956C34.7646 14.7535 35.3879 15.3769 35.3879 16.1458V32.8252C35.3879 35.9166 32.8819 38.4227 29.7905 38.4227C26.6991 38.4227 24.1931 35.9166 24.1931 32.8252V16.1458Z" fill="#0A68FF"/>
<circle cx="29.7905" cy="6.08388" r="5.59743" fill="#0A68FF"/>
<path d="M1.20356 56V45.8495H3.14665L7.46785 53.0129H6.4383L10.687 45.8495H12.6156L12.6446 56H10.4405L10.426 49.2282H10.832L7.43885 54.927H6.3803L2.91464 49.2282H3.40766V56H1.20356ZM18.6055 56.116C17.7741 56.116 17.0346 55.942 16.3869 55.594C15.7489 55.246 15.2413 54.7723 14.8643 54.1729C14.497 53.5639 14.3133 52.8727 14.3133 52.0993C14.3133 51.3163 14.497 50.6251 14.8643 50.0257C15.2413 49.4167 15.7489 48.943 16.3869 48.6047C17.0346 48.2566 17.7741 48.0826 18.6055 48.0826C19.4272 48.0826 20.1619 48.2566 20.8096 48.6047C21.4573 48.943 21.9648 49.4119 22.3322 50.0112C22.6995 50.6106 22.8832 51.3066 22.8832 52.0993C22.8832 52.8727 22.6995 53.5639 22.3322 54.1729C21.9648 54.7723 21.4573 55.246 20.8096 55.594C20.1619 55.942 19.4272 56.116 18.6055 56.116ZM18.6055 54.2599C18.9825 54.2599 19.3209 54.1729 19.6205 53.9989C19.9202 53.8249 20.1571 53.5784 20.3311 53.2594C20.5051 52.9307 20.5921 52.544 20.5921 52.0993C20.5921 51.645 20.5051 51.2583 20.3311 50.9393C20.1571 50.6202 19.9202 50.3737 19.6205 50.1997C19.3209 50.0257 18.9825 49.9387 18.6055 49.9387C18.2285 49.9387 17.8901 50.0257 17.5905 50.1997C17.2908 50.3737 17.0491 50.6202 16.8654 50.9393C16.6914 51.2583 16.6044 51.645 16.6044 52.0993C16.6044 52.544 16.6914 52.9307 16.8654 53.2594C17.0491 53.5784 17.2908 53.8249 17.5905 53.9989C17.8901 54.1729 18.2285 54.2599 18.6055 54.2599ZM24.5547 56V45.8495H26.4978L32.4866 53.1579H31.5441V45.8495H33.8642V56H31.9356L25.9323 48.6917H26.8748V56H24.5547ZM40.8479 48.0826C41.4666 48.0826 42.0177 48.2083 42.501 48.4596C42.994 48.7013 43.3807 49.0783 43.6611 49.5907C43.9414 50.0934 44.0816 50.7411 44.0816 51.5338V56H41.8195V51.8818C41.8195 51.2534 41.6793 50.7894 41.399 50.4897C41.1283 50.1901 40.7416 50.0402 40.2389 50.0402C39.8812 50.0402 39.5574 50.1176 39.2674 50.2722C38.987 50.4172 38.7647 50.6444 38.6003 50.9538C38.4457 51.2631 38.3683 51.6595 38.3683 52.1428V56H36.1062V48.1986H38.2668V50.3592L37.8608 49.7067C38.1412 49.1847 38.5423 48.7835 39.0644 48.5032C39.5864 48.2228 40.1809 48.0826 40.8479 48.0826ZM46.2916 56V45.8495H48.6407V56H46.2916ZM53.1522 56V47.7636H49.9041V45.8495H58.7495V47.7636H55.5013V56H53.1522Z" fill="#092E69"/>
</svg>
